<?xml version="1.0" encoding="UTF-8" standalone="no"?>
<svg
   xmlns:dc="http://purl.org/dc/elements/1.1/"
   xmlns:cc="http://creativecommons.org/ns#"
   xmlns:rdf="http://www.w3.org/1999/02/22-rdf-syntax-ns#"
   xmlns:svg="http://www.w3.org/2000/svg"
   xmlns="http://www.w3.org/2000/svg"
   version="1.1"
   viewBox="0 0 320 96"
   fill="#bac0c5"
   width="320"
   height="96">
  <path
     style="fill:#bac0c5"
     d="m 110.29875,33.439365 q -2.16,0 -3.68,-1.52 -1.52,-1.52 -1.52,-3.68 v -1.68 h 4.32 v 1.08 q 0,0.88 0.28,1.2 0.32,0.28 1.2,0.28 h 17.2 q 0.88,0 1.16,-0.28 0.28,-0.32 0.28,-1.2 v -4.96 q 0,-0.92 -0.28,-1.2 -0.28,-0.28 -1.16,-0.28 h -17.8 q -2.16,0 -3.68,-1.52 -1.52,-1.52 -1.52,-3.68 v -6.16 q 0,-2.16 1.52,-3.68 1.52,-1.52 3.68,-1.52 h 18.4 q 2.16,0 3.68,1.52 1.52,1.52 1.52,3.68 v 1.68 h -4.36 v -1.08 q 0,-0.88 -0.28,-1.16 -0.28,-0.32 -1.16,-0.32 h -17.2 q -0.88,0 -1.2,0.32 -0.28,0.28 -0.28,1.16 v 4.96 q 0,0.92 0.28,1.2 0.32,0.28 1.2,0.28 h 17.8 q 2.16,0 3.68,1.52 1.52,1.52 1.52,3.68 v 6.16 q 0,2.16 -1.52,3.68 -1.52,1.52 -3.68,1.52 z" />
  <path
     style="fill:#bac0c5"
     d="m 138.1475,42.639365 v -32.4 h 18.4 q 2.16,0 3.68,1.52 1.52,1.52 1.52,3.68 v 12.8 q 0,2.16 -1.52,3.68 -1.52,1.52 -3.68,1.52 h -14.08 v 9.2 z m 5.8,-13.52 h 12 q 0.88,0 1.16,-0.28 0.32,-0.32 0.32,-1.2 v -11.6 q 0,-0.88 -0.32,-1.16 -0.28,-0.32 -1.16,-0.32 h -12 q -0.88,0 -1.2,0.32 -0.28,0.28 -0.28,1.16 v 11.6 q 0,0.88 0.28,1.2 0.32,0.28 1.2,0.28 z" />
  <path
     style="fill:#bac0c5"
     d="m 169.79,33.439365 q -2.16,0 -3.68,-1.52 -1.52,-1.52 -1.52,-3.68 v -12.8 q 0,-2.16 1.52,-3.68 1.52,-1.52 3.68,-1.52 h 18.32 v 4.32 h -17.72 q -0.88,0 -1.2,0.32 -0.28,0.28 -0.28,1.16 v 11.6 q 0,0.88 0.28,1.2 0.32,0.28 1.2,0.28 h 17.8 v 4.32 z" />
  <path
     style="fill:#bac0c5"
     d="m 191.74125,33.439365 v -30.8 h 4.32 v 17.04 h 5.2 l 8.68,-9.44 h 4.96 v 0.8 l -9.8,10.8 9.8,10.8 v 0.8 h -4.96 l -8.68,-9.44 h -5.2 v 9.44 z" />
  <path
     d="M 121.55279,80.159042 V 66.719018 h 12.32002 v 2.016004 h -10.28535 v 3.696006 h 8.26935 v 2.016004 h -8.26935 v 3.696007 h 10.28535 v 2.016003 z"
  />
  <path
     d="M 135.84448,80.159042 V 66.719018 h 10.99469 q 1.008,0 1.71734,0.709335 0.728,0.709334 0.728,1.717336 v 8.586682 q 0,1.008002 -0.728,1.717337 -0.70934,0.709334 -1.71734,0.709334 z m 2.70668,-2.016003 h 8.00801 q 0.42933,0 0.56,-0.130667 0.13067,-0.149334 0.13067,-0.560001 V 69.42569 q 0,-0.410668 -0.13067,-0.541335 -0.13067,-0.149333 -0.56,-0.149333 h -8.00801 q -0.41067,0 -0.56,0.149333 -0.13067,0.130667 -0.13067,0.541335 v 8.026681 q 0,0.410667 0.13067,0.560001 0.14933,0.130667 0.56,0.130667 z"
  />
  <path
     d="M 151.30022,80.159042 V 66.719018 h 2.016 v 13.440024 z"
  />
  <path
     d="m 160.42532,80.159042 v -11.42402 h -5.71201 v -2.016004 h 13.44003 v 2.016004 h -5.71201 v 11.42402 z"
  />
  <path
     d="m 171.95697,80.159042 q -1.00801,0 -1.71734,-0.709334 -0.70934,-0.709335 -0.70934,-1.717337 v -8.586682 q 0,-1.008002 0.70934,-1.717336 0.70933,-0.709335 1.71734,-0.709335 h 8.58668 q 0.98933,0 1.69867,0.709335 0.728,0.709334 0.728,1.717336 v 8.586682 q 0,1.008002 -0.728,1.717337 -0.70934,0.709334 -1.69867,0.709334 z m 0.28,-2.016003 h 8.00801 q 0.42934,0 0.56,-0.130667 0.13067,-0.149334 0.13067,-0.560001 V 69.42569 q 0,-0.410668 -0.13067,-0.541335 -0.13066,-0.149333 -0.56,-0.149333 h -8.00801 q -0.41067,0 -0.56,0.149333 -0.13067,0.130667 -0.13067,0.541335 v 8.026681 q 0,0.410667 0.13067,0.560001 0.14933,0.130667 0.56,0.130667 z"
  />
  <path
     d="M 185.00732,80.159042 V 66.737685 h 10.99469 q 1.008,0 1.71734,0.728001 0.728,0.709335 0.728,1.69867 v 3.770673 q 0,0.989335 -0.728,1.717337 -0.70934,0.709334 -1.71734,0.709334 h -1.344 l 3.73334,4.424008 v 0.373334 h -2.35201 L 192.026,75.3617 h -5.00267 v 4.797342 z M 187.714,73.32703 h 8.00801 q 0.42933,0 0.56,-0.130667 0.13067,-0.130667 0.13067,-0.541334 v -3.210673 q 0,-0.410667 -0.13067,-0.541334 -0.13067,-0.149334 -0.56,-0.149334 H 187.714 q -0.41067,0 -0.56001,0.149334 -0.13066,0.130667 -0.13066,0.541334 v 3.210673 q 0,0.410667 0.13066,0.541334 0.14934,0.130667 0.56001,0.130667 z"
  />
</svg>
