<?xml version="1.0" encoding="UTF-8" standalone="no"?>
<svg
   xmlns:dc="http://purl.org/dc/elements/1.1/"
   xmlns:cc="http://creativecommons.org/ns#"
   xmlns:rdf="http://www.w3.org/1999/02/22-rdf-syntax-ns#"
   xmlns:svg="http://www.w3.org/2000/svg"
   xmlns="http://www.w3.org/2000/svg"
   version="1.1"
   preserveAspectRatio="xMidYMid meet"
   viewBox="0 0 640 640">
  <path
     style="fill:#b5c955"
     d="M 320.72462,64.138789 C 305.7376,64.016842 290.99083,67.90651 278.01366,75.404409 L 129.15429,161.31847 c -25.99324,15.00921 -42.003834,42.74631 -41.999997,72.76172 v 171.85548 c 0.0059,30.00564 16.015217,57.73004 41.999997,72.73436 l 148.85937,85.9414 c 25.99015,15.00342 58.00985,15.00342 84,0 l 148.83205,-85.9414 c 25.98478,-15.00432 41.99406,-42.72872 42,-72.73436 V 234.08019 c 0.004,-30.01541 -16.00676,-57.75251 -42,-72.76172 L 362.01366,75.404409 c -12.55961,-7.25683 -26.78424,-11.137987 -41.28904,-11.26562 z" />
  <path
     style="fill:#000000;fill-opacity:0.05555556"
     d="M 150,316.66667 218.75,412.5 327.08333,450 422.91667,391.66667 393.39131,371.33099 Z" />
  <path
     style="fill:#c7d45e"
     d="M 320.72461 64.138672 C 305.73759 64.016725 290.99084 67.906398 278.01367 75.404297 L 129.1543 161.31836 C 117.73502 167.91217 108.24401 176.96322 101.18945 187.58398 L 547.42383 435.61328 C 550.95506 426.27132 552.84366 416.23789 552.8457 405.93555 L 552.8457 234.08008 C 552.8497 204.06467 536.83894 176.32757 510.8457 161.31836 L 362.01367 75.404297 C 349.45406 68.147467 335.22941 64.266305 320.72461 64.138672 z " />
  <path
     style="fill:#000000;fill-opacity:0.18"
     d="M 320.83398 170.83398 L 189.58398 243.75 L 150 316.66602 L 218.75 412.5 L 146.35742 419.0918 L 224.05273 533.45703 L 278.01367 564.61133 C 304.00382 579.61475 336.02352 579.61475 362.01367 564.61133 L 510.8457 478.66992 C 536.83048 463.6656 552.83976 435.94119 552.8457 405.93555 L 552.8457 331.78125 L 493.63477 220.9082 L 320.83398 170.83398 z " />
  <path
     d="m 417.46816,259.76261 c 5.98568,-0.0289 11.97148,-1.54237 17.7082,-4.46307 l 58.45781,-34.3916 c -2.22749,-3.40483 -5.95185,-6.46818 -12.1289,-9.92637 l -148.18183,-85.0289 c -4.49638,-2.66922 -8.09535,-4.08344 -11.81602,-4.07285 -19.0501,18.76108 -19.45158,72.35772 0,91.76835 4.78042,0.30336 9.58192,1.85374 14.35606,4.66875 l 64.98632,37.58028 c 5.4029,2.62163 11.01058,3.89253 16.61836,3.86541 z"
     style="fill:#f2fdfd" />
  <path
     style="fill:#000000;fill-opacity:0.09"
     d="M 489.58398 333.33398 L 302.08398 466.66602 L 146.35742 419.0918 L 221.2793 531.85742 L 278.01367 564.61133 C 304.00382 579.61475 336.02352 579.61475 362.01367 564.61133 L 510.8457 478.66992 C 527.90869 468.81729 540.67033 453.47984 547.42383 435.61328 L 489.58398 333.33398 z " />
  <path
     style="fill:#e8f3fd"
     d="m 222.52342,380.23738 c -5.98567,0.0289 -11.97147,1.54237 -17.7082,4.46308 l -58.45781,34.39159 c 2.22749,3.40484 5.95185,6.46819 12.12891,9.92637 l 148.18183,85.02891 c 4.49638,2.66922 8.09535,4.08343 11.81602,4.07285 12.36524,-27.33543 22.7828,-55.18342 0,-91.76836 -4.78042,-0.30336 -9.58192,-1.85374 -14.35606,-4.66874 L 239.14179,384.1028 c -5.4029,-2.62163 -11.01058,-3.89253 -16.61837,-3.86542 z" />
  <path
     d="m 441.66163,360.39179 -105.84422,61.29103 c -5.76264,3.495 -11.66177,5.04521 -17.59693,4.66859 v 91.76888 c 3.53569,-0.0101 7.18131,-1.3066 11.81619,-4.07374 L 478.22079,429.0187 c 6.01644,-3.36856 9.70462,-6.36321 11.95067,-9.66304 0.27833,-38.42111 -20.26531,-58.40031 -48.50983,-58.96387 z"
     style="fill:#d5e9fb" />
  <path
     style="fill:#f6fbfe"
     d="m 319.97626,228.88972 c -4.01299,0.0197 -8.02586,1.20538 -11.81601,3.49277 L 246.60869,268.669 470.38174,397.83132 c 6.95808,4.1332 12.75352,9.02688 16.65,15.73067 1.21634,1.77027 2.27231,3.68873 3.13945,5.79374 l 0.1371,0.0721 c 2.80275,-4.11776 3.35567,-8.71026 3.35567,-15.10313 v -61.40742 c -0.10669,-10.89711 -2.11621,-16.50236 -14.93613,-23.88164 l -68.33497,-40.31543 -77.94843,-45.95449 c -2.72839,-1.46086 -6.00026,-2.74411 -9.47285,-3.67383 -0.9961,-0.14049 -1.99579,-0.20705 -2.99532,-0.20214 z" />
  <path
     style="fill:#feffff"
     d="m 198.33836,279.60821 105.84423,-61.29104 c 5.76263,-3.49499 11.66176,-5.04521 17.59692,-4.66858 v -91.76888 c -3.53568,0.0101 -7.18131,1.30659 -11.81619,4.07373 L 161.7792,210.98129 c -6.01643,3.36857 -9.70462,6.36321 -11.95066,9.66303 0.42876,38.42111 25.92217,59.10743 48.50982,58.96389 z" />
  <path
     d="m 320.02373,411.11027 c 4.01299,-0.0197 8.02587,-1.20539 11.81601,-3.49278 l 61.55157,-36.2865 -223.77305,-129.16232 c -6.95808,-4.1332 -12.75352,-9.02688 -16.65,-15.73066 -1.21633,-1.77028 -2.27231,-3.68875 -3.13945,-5.79374 l -0.13711,-0.0721 c -2.80275,4.11777 -3.35567,8.71027 -3.35567,15.10312 v 61.40743 c 0.10669,10.89711 2.11621,16.50235 14.93613,23.88164 l 68.33497,40.31543 77.94843,45.95448 c 2.72839,1.46087 6.00026,2.74411 9.47285,3.67384 0.99611,0.14048 1.99579,0.20704 2.99532,0.20214 z"
     style="fill:#e8fdfd" />
</svg>
